<svg width="75" height="76" viewBox="0 0 75 76" fill="none" xmlns="http://www.w3.org/2000/svg">
<path d="M56.9834 5.95866C49.5705 1.45107 40.8239 -0.346728 32.234 0.871577C23.6442 2.08988 15.7425 6.24891 9.87534 12.64C4.00818 19.0311 0.538556 27.2589 0.0576537 35.9214C-0.423248 44.5839 2.11433 53.1451 7.23801 60.1464C12.3617 67.1476 19.7545 72.1558 28.1567 74.3174C36.5589 76.479 45.4507 75.6604 53.317 72.0011C61.1833 68.3417 67.5375 62.068 71.2968 54.249C75.056 46.4299 75.9879 37.5493 73.9335 29.1202L65.5393 31.1661C67.1204 37.6531 66.4033 44.4877 63.5101 50.5053C60.6169 56.5228 55.7268 61.3511 49.6728 64.1673C43.6189 66.9836 36.7757 67.6136 30.3093 65.95C23.843 64.2864 18.1535 60.4321 14.2103 55.0439C10.2671 49.6557 8.31414 43.067 8.68424 36.4003C9.05435 29.7336 11.7246 23.4015 16.24 18.4829C20.7554 13.5643 26.8365 10.3635 33.4473 9.42584C40.0581 8.48823 46.7895 9.87182 52.4945 13.3409L56.9834 5.95866Z" fill="#F9BCC3"/>
<path d="M38.2793 16.1328V43.4766L53.123 47.3828" stroke="#F9BCC3" stroke-width="7.4707"/>
</svg>
