<?xml version="1.0" encoding="UTF-8"?>
<svg id="Calque_2" data-name="Calque 2" xmlns="http://www.w3.org/2000/svg" viewBox="0 0 1920 1080">
  <defs>
    <style>
      .cls-1 {
        fill: #fff;
      }
    </style>
  </defs>
  <path id="path1228" class="cls-1" d="M311.86,432.6v317.99h76.93v-94.13h24.21c53.37,0,79.77-20.66,92.97-44.78,9.72-20.19,14.26-42.48,13.19-64.87h-.08c0-35.59-10.92-114.22-99.3-114.22h-107.92ZM388.79,463.03l7.46.08c33.87,0,45.34,32.7,45.34,83.79s-11.49,78.66-46.5,78.66h-6.29v-162.52Z"/>
  <path id="path148" class="cls-1" d="M71.36,338.47v317.43h107.92c88.41,0,99.3-78.06,99.3-113.65,1.05-22.39-3.49-44.68-13.23-64.87-13.2-24.1-39.6-44.78-92.97-44.78h-24.13v-94.13h-76.89ZM148.25,463.03h6.33c35.02,0,46.5,29.83,46.5,78.62s-11.47,83.83-45.34,83.83h-7.5v-162.44Z"/>
  <path id="path443" class="cls-1" d="M1044.86,425.71c-24.37-.56-48.71,2.14-72.36,8.02v34.44c4.89-1.99,9.88-3.72,14.95-5.17,29.29-8.6,82.1-14.33,82.1,38.49v6.9h-1.16c-7.45,0-18.39.01-31.59,1.16-14.03,1.06-27.89,3.75-41.29,8.02-31.36,8.47-52.61,37.59-51.11,70.04,0,50.51,32.67,68.87,78.02,68.87h123.48l.56-148.09c0-51.66-35.58-82.67-101.59-82.67h0ZM1068.48,537h1.16v87.8l-13.79.04c-16.65-.62-33.88-4.02-33.88-39.61-1.62-24.98,17.32-46.54,42.3-48.15,1.4-.09,2.8-.12,4.2-.08h0Z"/>
  <path id="path439" class="cls-1" d="M1759.55,424.67c-86.09-.57-107.32,62.67-107.32,111.93,0,43.04,16.67,126.28,129.17,126.28,23.49,0,46.86-3.3,69.44-9.78v-37.28c-49.37,19.42-118.8,21.72-123.4-71.84v-1.16h132.02v-22.85c0-55.09-36.77-95.29-99.9-95.29ZM1756.74,456.22c19.5,0,24.11,26.3,25.26,49.27v5.29h-53.4v-1.72c2.3-30.42,9.2-52.84,28.14-52.84h0Z"/>
  <path id="path138" class="cls-1" d="M1536.78,455.55c-23.54,0-35.02,41.89-27.55,104.46,8.6,75.76,76.34,75.76,122.25,56.26v37.32c-23.19,6.38-47.13,9.66-71.18,9.75-64.91,5.33-121.85-42.97-127.18-107.88-.42-5.16-.51-10.35-.25-15.53,0-48.22,17.22-114.8,108.48-114.8,48.96-3.87,91.78,32.67,95.66,81.63.28,3.57.35,7.16.2,10.74h-72.97c0-33.29-6.9-61.99-27.55-61.99"/>
  <path id="path140" class="cls-1" d="M628.7,432.61v223.86h-76.34v-223.86h76.34Z"/>
  <path id="path435" class="cls-1" d="M1399.01,656.46h-76.91v-134.32c0-52.81-20.1-55.69-48.22-56.26h-5.17v190.56h-76.34v-224.41c6.32.57,26.97,1.15,95.86,1.15,110.84,0,111.35,51.66,111.35,92.98l-.57,130.3Z"/>
  <path id="path433" class="cls-1" d="M819.27,338.47v32.14c-7.47,0-14.92,0-22.39.57-7.29.31-14.48,1.86-21.24,4.6-14.79,6.42-23.48,21.92-21.24,37.89v18.95h53.96v32.72h-53.96v190.56h-76.32v-224.45c0-83.23,56.82-92.98,126.28-92.98h14.92Z"/>
  <path id="path142" class="cls-1" d="M942.67,457.87c-24.01-1.52-44.7,16.71-46.22,40.72-.18,2.85-.08,5.71.3,8.54v148.67h-76.34v-150.97c0-45.34,41.89-79.78,106.74-79.78h15.5l.02,32.82Z"/>
  <path id="path144" class="cls-1" d="M590.73,386.69c-27.21,0-49.26-22.06-49.26-49.26s22.06-49.26,49.26-49.26,49.26,22.06,49.26,49.26h0c0,27.21-22.06,49.26-49.26,49.26"/>
  <path id="path146" class="cls-1" d="M590.73,801.11c-27.21,0-49.26-22.06-49.26-49.26s22.06-49.26,49.26-49.26,49.26,22.06,49.26,49.26h0c0,27.21-22.06,49.26-49.26,49.26"/>
</svg>