<svg width="149" height="96" viewBox="0 0 149 96" fill="none" xmlns="http://www.w3.org/2000/svg">
<g clip-path="url(#clip0_27153_1262)">
<path d="M18.5846 64.8657C18.5846 64.8565 18.5846 64.8474 18.5846 64.8383V21.1944C18.5846 9.48891 28.0735 0 39.779 0H126.886C138.591 0 148.08 9.48891 148.08 21.1944V64.8373C148.08 76.5428 138.591 86.0317 126.886 86.0317H63.8216C56.3105 86.0317 48.8236 86.9245 41.525 88.6977C13.368 95.5389 -0.000502589 95.5935 -0.000502589 95.5935C18.0532 87.7352 18.5947 65.8758 18.5846 64.8646V64.8657Z" fill="#EF3741"/>
<path d="M39.9356 21.5742H121.847C125.817 21.5742 129.035 24.7925 129.035 28.7625C129.035 32.7325 125.817 35.9508 121.847 35.9508H39.9356C35.9656 35.9508 32.7473 32.7325 32.7473 28.7625C32.7473 24.7925 35.9656 21.5742 39.9356 21.5742Z" fill="#F9BCC3"/>
<path d="M39.9356 45.9258H121.847C125.817 45.9258 129.035 49.1441 129.035 53.1141C129.035 57.0841 125.817 60.3024 121.847 60.3024H39.9356C35.9656 60.3024 32.7473 57.0841 32.7473 53.1141C32.7473 49.1441 35.9656 45.9258 39.9356 45.9258Z" fill="#F9BCC3"/>
</g>
<defs>
<clipPath id="clip0_27153_1262">
<rect width="148.081" height="95.5945" fill="white" transform="matrix(-1 0 0 1 148.08 0)"/>
</clipPath>
</defs>
</svg>
