<svg width="129" height="141" viewBox="0 0 129 141" fill="none" xmlns="http://www.w3.org/2000/svg">
<g clip-path="url(#clip0_27153_1268)">
<path d="M110.902 52.6672H102.164V37.6975C102.164 16.8776 85.2868 0 64.4679 0C56.065 0 48.3049 2.749 42.0376 7.39679L50.3727 17.74C54.1905 15.247 58.7513 13.7976 63.6501 13.7976H65.9001C79.3293 13.7976 90.215 24.6833 90.215 38.1125V53.1136H39.3352V38.1125C39.3352 37.9364 39.3372 37.7603 39.3413 37.5852L27.1084 32.6287C26.8857 34.2866 26.7704 35.9789 26.7704 37.6975V52.6672H18.0325C8.07291 52.6672 0 60.7411 0 70.7007V122.525C0 132.484 8.07291 140.558 18.0325 140.558H110.902C120.862 140.558 128.935 132.484 128.935 122.525V70.7007C128.935 60.7411 120.862 52.6672 110.902 52.6672ZM70.9143 103.562V110.612C70.9143 113.381 68.6693 115.626 65.9001 115.626C63.1308 115.626 60.8859 113.381 60.8859 110.612V103.562C57.8606 101.797 55.8494 98.4852 55.9375 94.7099C56.063 89.3809 60.4284 85.0601 65.7574 84.9862C71.3262 84.9082 75.8637 89.3992 75.8637 94.9498C75.8637 98.6249 73.8738 101.835 70.9133 103.562H70.9143Z" fill="#EF3741"/>
</g>
<defs>
<clipPath id="clip0_27153_1268">
<rect width="128.935" height="140.558" fill="white"/>
</clipPath>
</defs>
</svg>
