<svg width="169" height="169" viewBox="0 0 169 169" fill="none" xmlns="http://www.w3.org/2000/svg">
<g clip-path="url(#clip0_27153_1266)">
<path d="M155.619 132.946L107.857 107.945L131.813 156.451L97.1981 114.965L100.877 169L84.6787 117.347L67.5211 168.686L72.2058 114.729L36.8249 155.555L61.6795 107.509L13.4603 131.607L54.7001 96.7864L0.984375 100.487L52.3314 84.1925L1.29716 66.9328L54.9339 71.6454L14.35 36.0538L62.1117 61.0564L38.157 12.5502L72.7717 54.0354L69.0922 0L85.2901 51.6527L102.448 0.314645L97.7629 54.2707L133.144 13.4452L108.29 61.4912L156.509 37.3939L115.269 72.2146L168.984 68.5132L117.637 84.8075L168.673 102.067L115.035 97.3546L155.619 132.946Z" fill="#7E26F6"/>
</g>
<defs>
<clipPath id="clip0_27153_1266">
<rect width="168" height="169" fill="white" transform="translate(0.984375)"/>
</clipPath>
</defs>
</svg>
