<svg width="73" height="75" viewBox="0 0 73 75" fill="none" xmlns="http://www.w3.org/2000/svg">
<path d="M6.40349 21.223L6.06705 19.4882L15.1813 17.7206L15.5178 19.4553L11.987 20.1401L13.866 29.8289L11.8134 30.227L9.93429 20.5382L6.40349 21.223ZM21.6476 28.4933C20.7886 28.6599 20.0121 28.6253 19.3181 28.3895C18.6272 28.1492 18.0505 27.7324 17.5882 27.1392C17.1252 26.5422 16.8067 25.7956 16.6329 24.8994C16.462 24.0181 16.4793 23.2122 16.6849 22.4816C16.8935 21.7466 17.2648 21.1345 17.7988 20.645C18.3321 20.1519 19.0078 19.826 19.8258 19.6673C20.3539 19.5649 20.8688 19.5538 21.3705 19.634C21.8752 19.7097 22.3422 19.8893 22.7714 20.1726C23.2043 20.4552 23.5779 20.8496 23.8922 21.3558C24.2057 21.8584 24.4353 22.4852 24.581 23.2364L24.7011 23.8555L17.6785 25.2175L17.4146 23.8565L22.5016 22.8699C22.4229 22.4839 22.2725 22.1561 22.0505 21.8867C21.8277 21.6135 21.5525 21.418 21.2248 21.3002C20.9009 21.1816 20.5455 21.1599 20.1588 21.2349C19.746 21.3149 19.403 21.4857 19.1295 21.7471C18.8554 22.0047 18.6623 22.3123 18.5503 22.6697C18.4413 23.0226 18.422 23.391 18.4926 23.7747L18.723 24.9628C18.8196 25.4611 18.9937 25.8711 19.2451 26.1927C19.4959 26.5107 19.8032 26.7327 20.1672 26.8589C20.5305 26.9814 20.9316 27 21.3704 26.9149C21.6642 26.858 21.9221 26.7655 22.1442 26.6375C22.3656 26.5058 22.5478 26.3412 22.6909 26.1437C22.8339 25.9462 22.9266 25.718 22.969 25.4589L24.8954 25.3052C24.8731 25.8266 24.7306 26.3057 24.4681 26.7424C24.2085 27.1748 23.8401 27.5433 23.3629 27.8481C22.885 28.1491 22.3132 28.3642 21.6476 28.4933ZM32.6821 19.6395L30.8804 20.1973C30.7923 20.0215 30.6673 19.8644 30.5054 19.726C30.3472 19.5869 30.1506 19.488 29.9154 19.4295C29.6803 19.3709 29.4065 19.3719 29.0941 19.4325C28.6739 19.514 28.3383 19.6736 28.0874 19.9113C27.8401 20.1484 27.7464 20.4115 27.8064 20.7009C27.851 20.9507 27.9814 21.1357 28.1976 21.2559C28.4176 21.3753 28.7548 21.443 29.2094 21.459L30.7313 21.4879C31.5759 21.5055 32.232 21.6657 32.6998 21.9685C33.1712 22.2706 33.4683 22.7281 33.591 23.341C33.6919 23.8809 33.6261 24.3875 33.3938 24.8609C33.1645 25.3298 32.7971 25.7329 32.2914 26.0702C31.7858 26.4074 31.176 26.6453 30.462 26.7838C29.4134 26.9872 28.5267 26.9315 27.802 26.6167C27.0766 26.2983 26.5761 25.7568 26.3005 24.9922L28.2327 24.4207C28.3969 24.7901 28.6432 25.0453 28.9715 25.1861C29.2997 25.3269 29.6963 25.3523 30.1611 25.2621C30.6408 25.1691 31.0066 24.9959 31.2584 24.7426C31.5139 24.4885 31.6136 24.2164 31.5573 23.9264C31.5097 23.681 31.3756 23.4967 31.1549 23.3736C30.938 23.2497 30.6241 23.1833 30.2134 23.1742L28.6925 23.1508C27.8375 23.1392 27.1736 22.9689 26.7008 22.64C26.2273 22.3074 25.9319 21.8284 25.8144 21.203C25.7083 20.6756 25.7627 20.1905 25.9778 19.7475C26.1958 19.3001 26.5446 18.9199 27.0241 18.607C27.5066 18.2896 28.0899 18.0646 28.7742 17.9319C29.7782 17.7371 30.6099 17.7977 31.2692 18.1136C31.9322 18.4287 32.4032 18.9373 32.6821 19.6395ZM38.3702 16.1865L38.6731 17.7483L33.7479 18.7036L33.445 17.1417L38.3702 16.1865ZM34.2628 14.8533L36.282 14.4616L37.842 22.5049C37.8946 22.7764 37.9759 22.9767 38.0859 23.1059C38.1988 23.2306 38.3291 23.3056 38.4768 23.331C38.6245 23.3564 38.782 23.3529 38.9493 23.3204C39.0758 23.2959 39.1892 23.2642 39.2897 23.2254C39.394 23.1859 39.4725 23.1533 39.5254 23.1276L40.1718 24.6402C40.0712 24.6983 39.9248 24.7691 39.7327 24.8527C39.5442 24.9355 39.3076 25.0084 39.0227 25.0714C38.5198 25.1844 38.0495 25.1965 37.6118 25.1078C37.1733 25.0153 36.8004 24.8137 36.4932 24.5029C36.1897 24.1913 35.9878 23.7674 35.8877 23.2312L34.2628 14.8533ZM45.454 23.8762C44.595 24.0428 43.8185 24.0082 43.1245 23.7724C42.4336 23.5321 41.8569 23.1153 41.3946 22.522C40.9316 21.925 40.6131 21.1784 40.4393 20.2823C40.2684 19.401 40.2857 18.595 40.4913 17.8645C40.6999 17.1295 41.0712 16.5173 41.6052 16.0279C42.1385 15.5348 42.8142 15.2089 43.6322 15.0502C44.1603 14.9478 44.6752 14.9367 45.1769 15.0169C45.6816 15.0926 46.1486 15.2722 46.5778 15.5555C47.0107 15.8381 47.3843 16.2325 47.6986 16.7387C48.0121 17.2412 48.2417 17.8681 48.3874 18.6192L48.5075 19.2384L41.4849 20.6004L41.221 19.2394L46.308 18.2528C46.2293 17.8668 46.0789 17.539 45.8569 17.2695C45.6341 16.9963 45.3589 16.8009 45.0312 16.6831C44.7073 16.5645 44.3519 16.5428 43.9652 16.6178C43.5524 16.6978 43.2094 16.8686 42.9359 17.1299C42.6618 17.3876 42.4687 17.6951 42.3567 18.0526C42.2477 18.4055 42.2284 18.7739 42.299 19.1576L42.5294 20.3457C42.626 20.844 42.8001 21.254 43.0515 21.5756C43.3023 21.8935 43.6096 22.1156 43.9736 22.2418C44.3369 22.3642 44.738 22.3829 45.1768 22.2978C45.4706 22.2408 45.7285 22.1484 45.9506 22.0204C46.172 21.8887 46.3542 21.7241 46.4973 21.5266C46.6403 21.3291 46.733 21.1008 46.7754 20.8418L48.7018 20.6881C48.6795 21.2095 48.537 21.6886 48.2745 22.1253C48.0149 22.5577 47.6465 22.9262 47.1693 23.231C46.6914 23.532 46.1196 23.7471 45.454 23.8762ZM50.8279 22.6603L50.5791 21.3774L53.9225 14.9818L53.9084 14.9093L49.6358 15.7379L49.3113 14.0646L56.0549 12.7567L56.3221 14.1344L53.1722 20.3941L53.1863 20.4666L57.537 19.6228L57.8616 21.2962L50.8279 22.6603ZM63.9111 8.26972L65.2913 16.371L63.4952 16.7194L61.7524 8.68838L63.9111 8.26972ZM65.0683 20.0258C64.7299 20.0914 64.4168 20.0287 64.1289 19.8376C63.8448 19.6457 63.6695 19.3788 63.6032 19.0367C63.5383 18.702 63.6017 18.3926 63.7936 18.1084C63.9891 17.8236 64.2561 17.6483 64.5945 17.5827C64.9254 17.5185 65.2348 17.582 65.5227 17.7731C65.8143 17.9635 65.9925 18.226 66.0574 18.5607C66.1014 18.7875 66.0838 19.0051 66.0046 19.2134C65.9291 19.4209 65.8092 19.5985 65.6449 19.7461C65.4836 19.8893 65.2914 19.9825 65.0683 20.0258Z" fill="#EFEFEF"/>
<path d="M25.3136 73.1079C24.9067 73.0305 24.6396 72.6378 24.717 72.2309L25.9785 65.5999C26.0559 65.1929 26.4485 64.9258 26.8554 65.0032C27.2624 65.0806 27.5295 65.4733 27.4521 65.8802L26.3307 71.7745L32.225 72.8958C32.6319 72.9732 32.8991 73.3658 32.8216 73.7727C32.7442 74.1797 32.3516 74.4468 31.9447 74.3694L25.3136 73.1079ZM35.7354 36.4609L36.4209 36.1566C39.8677 43.9217 41.2471 50.4574 39.6933 56.4355C38.1374 62.4216 33.6863 67.6773 25.8757 72.9912L25.4538 72.3711L25.0319 71.751C32.7054 66.5304 36.8168 61.5394 38.2415 56.0581C39.6682 50.5689 38.4463 44.4167 35.0499 36.7652L35.7354 36.4609Z" fill="#EFEFEF"/>
</svg>
