<svg width="155" height="87" viewBox="0 0 155 87" fill="none" xmlns="http://www.w3.org/2000/svg">
<path d="M6.17525 30.8063L5.55616 28.229L19.0971 24.9763L19.7162 27.5536L14.4705 28.8136L17.9283 43.2081L14.8787 43.9407L11.4209 29.5462L6.17525 30.8063ZM29.5007 40.6912C28.2245 40.9978 27.0586 40.9974 26.0031 40.69C24.9517 40.3757 24.06 39.7893 23.3279 38.9309C22.5945 38.067 22.0678 36.9693 21.748 35.6378C21.4335 34.3285 21.406 33.1196 21.6657 32.0113C21.9296 30.8961 22.4454 29.9541 23.2132 29.1853C23.9797 28.411 24.9707 27.8779 26.1861 27.5859C26.9706 27.3974 27.7414 27.3467 28.4986 27.4336C29.2599 27.5137 29.9716 27.7518 30.6335 28.1479C31.301 28.5427 31.887 29.109 32.3915 29.8468C32.8946 30.5791 33.2802 31.5032 33.5483 32.6192L33.7693 33.539L23.3359 36.0452L22.8502 34.0232L30.408 32.2078C30.2644 31.6345 30.0173 31.1533 29.6668 30.7642C29.3149 30.3696 28.8895 30.0949 28.3907 29.9401C27.8974 29.7839 27.3634 29.7749 26.7889 29.9129C26.1756 30.0602 25.6728 30.3387 25.2804 30.7485C24.8867 31.1528 24.6177 31.6265 24.4735 32.1695C24.3335 32.7057 24.3291 33.2589 24.4603 33.8293L24.8843 35.5944C25.0621 36.3347 25.3501 36.9376 25.7482 37.4029C26.145 37.8627 26.6203 38.1751 27.1741 38.3401C27.7266 38.4995 28.3289 38.501 28.9808 38.3444C29.4172 38.2395 29.7976 38.0839 30.122 37.8774C30.4451 37.6654 30.7072 37.4066 30.9085 37.1012C31.1098 36.7957 31.2336 36.4475 31.2799 36.0566L34.1565 35.6986C34.1576 36.4814 33.9759 37.2087 33.6113 37.8807C33.251 38.5457 32.7234 39.1224 32.0285 39.6107C31.3322 40.0935 30.4896 40.4537 29.5007 40.6912ZM45.4499 26.6924L42.7868 27.6477C42.6431 27.39 42.4454 27.1629 42.1936 26.9663C41.9474 26.7683 41.6462 26.6332 41.2899 26.561C40.9336 26.4888 40.5235 26.5085 40.0594 26.6199C39.4351 26.7699 38.9428 27.0313 38.5824 27.4042C38.2276 27.7758 38.1047 28.1764 38.2137 28.606C38.2971 28.9774 38.5048 29.246 38.8367 29.4117C39.1742 29.5761 39.6841 29.6552 40.3663 29.6491L42.649 29.5916C43.9157 29.562 44.9096 29.7586 45.6306 30.1814C46.3571 30.6029 46.8326 31.2688 47.0571 32.179C47.244 32.9814 47.179 33.745 46.8623 34.4697C46.5497 35.1876 46.0257 35.816 45.2904 36.3549C44.555 36.8938 43.657 37.2907 42.5962 37.5455C41.0383 37.9198 39.7059 37.8951 38.599 37.4714C37.4909 37.0422 36.705 36.2639 36.2413 35.1365L39.0989 34.152C39.3695 34.6948 39.7555 35.0608 40.2567 35.2501C40.758 35.4393 41.3539 35.4511 42.0445 35.2852C42.7572 35.114 43.2938 34.8302 43.6544 34.4339C44.0205 34.0362 44.1518 33.622 44.0483 33.191C43.9607 32.8264 43.7475 32.5592 43.4087 32.3893C43.0754 32.2181 42.6007 32.1393 41.9845 32.1529L39.7038 32.2186C38.4218 32.2578 37.4157 32.0466 36.6854 31.5851C35.9538 31.1181 35.4793 30.4198 35.2619 29.4903C35.0679 28.7072 35.1174 27.9765 35.4103 27.2985C35.7074 26.6135 36.2049 26.0207 36.9027 25.52C37.6047 25.0125 38.464 24.6366 39.4805 24.3924C40.9721 24.0341 42.2224 24.0697 43.2314 24.4994C44.2458 24.9277 44.9853 25.6587 45.4499 26.6924ZM53.7449 21.1412L54.3023 23.4616L46.9849 25.2193L46.4275 22.8989L53.7449 21.1412ZM47.5015 19.4154L50.5014 18.6948L53.3719 30.6446C53.4688 31.0479 53.6039 31.3427 53.7772 31.5289C53.9547 31.7084 54.1549 31.8122 54.3779 31.8404C54.6009 31.8687 54.8367 31.8529 55.0853 31.7932C55.2732 31.7481 55.4411 31.6931 55.5892 31.6284C55.7427 31.5622 55.8583 31.5082 55.9359 31.4662L57.0047 33.69C56.8578 33.7837 56.6431 33.8995 56.3607 34.0375C56.0838 34.1741 55.734 34.2991 55.3113 34.4123C54.5652 34.6149 53.8612 34.6642 53.1993 34.5603C52.5361 34.4508 51.964 34.1733 51.483 33.7279C51.0076 33.2811 50.677 32.6593 50.4915 31.8624L47.5015 19.4154ZM64.8696 32.1952C63.5934 32.5017 62.4275 32.5013 61.372 32.1939C60.3206 31.8796 59.4289 31.2933 58.6968 30.4348C57.9633 29.5709 57.4367 28.4732 57.1169 27.1417C56.8023 25.8324 56.7749 24.6236 57.0346 23.5152C57.2985 22.4 57.8143 21.458 58.5821 20.6892C59.3486 19.9149 60.3395 19.3818 61.555 19.0898C62.3395 18.9014 63.1103 18.8506 63.8674 18.9375C64.6288 19.0176 65.3405 19.2557 66.0024 19.6518C66.6699 20.0466 67.2559 20.6129 67.7604 21.3507C68.2635 22.083 68.6491 23.0071 68.9172 24.1231L69.1381 25.0429L58.7048 27.5492L58.2191 25.5271L65.7768 23.7117C65.6333 23.1384 65.3862 22.6573 65.0356 22.2682C64.6837 21.8735 64.2584 21.5988 63.7595 21.444C63.2663 21.2878 62.7323 21.2788 62.1578 21.4168C61.5445 21.5641 61.0417 21.8427 60.6493 22.2525C60.2556 22.6568 59.9866 23.1304 59.8424 23.6734C59.7024 24.2096 59.698 24.7629 59.8291 25.3332L60.2531 27.0984C60.431 27.8387 60.7189 28.4415 61.117 28.9068C61.5138 29.3666 61.9891 29.679 62.543 29.844C63.0955 30.0035 63.6977 30.0049 64.3497 29.8483C64.7861 29.7434 65.1665 29.5878 65.4909 29.3813C65.814 29.1693 66.0761 28.9106 66.2774 28.6051C66.4786 28.2997 66.6024 27.9514 66.6488 27.5605L69.5254 27.2026C69.5265 27.9853 69.3447 28.7127 68.9802 29.3846C68.6199 30.0496 68.0923 30.6263 67.3973 31.1146C66.7011 31.5974 65.8585 31.9576 64.8696 32.1952ZM72.842 30.0171L72.3842 28.1111L76.9708 18.3055L76.9449 18.1978L70.597 19.7226L69.9998 17.2365L80.0188 14.8299L80.5105 16.8767L76.205 26.4658L76.2309 26.5735L82.6947 25.0208L83.2919 27.5069L72.842 30.0171ZM91.4943 7.58552L94.0993 19.6342L91.4309 20.2752L88.2873 8.3559L91.4943 7.58552ZM94.0073 25.1258C93.5045 25.2465 93.0311 25.1733 92.5871 24.9059C92.1486 24.6373 91.8683 24.2488 91.7462 23.7406C91.6268 23.2434 91.7014 22.7755 91.97 22.337C92.2442 21.8971 92.6326 21.6168 93.1354 21.4961C93.6271 21.378 94.0949 21.4526 94.539 21.7199C94.9885 21.9859 95.273 22.3675 95.3925 22.8647C95.4734 23.2017 95.4615 23.5289 95.3565 23.8463C95.2572 24.1623 95.0893 24.4364 94.8528 24.6685C94.6206 24.8937 94.3388 25.0461 94.0073 25.1258Z" fill="#EFEFEF"/>
<path d="M154.757 69.3769C155.285 68.4066 154.926 67.1921 153.956 66.6644L138.143 58.0646C137.172 57.5369 135.958 57.8957 135.43 58.8661C134.903 59.8364 135.261 61.0509 136.232 61.5786L150.287 69.2228L142.643 83.2786C142.116 84.249 142.474 85.4634 143.445 85.9911C144.415 86.5189 145.629 86.16 146.157 85.1897L154.757 69.3769ZM63 42L61.2803 43.0212C68.2286 54.7222 78.0244 65.5519 92.8603 71.4273C107.691 77.3004 127.269 78.1093 153.567 70.3394L153 68.4214L152.433 66.5034C126.714 74.1025 108.097 73.1589 94.3332 67.7083C80.5753 62.2598 71.3796 52.1943 64.7197 40.9788L63 42Z" fill="#EFEFEF"/>
</svg>
