<svg width="485" height="148" viewBox="0 0 485 148" fill="none" xmlns="http://www.w3.org/2000/svg">
<g clip-path="url(#clip0_27153_1210)">
<path d="M125.604 95.8415V62.8092V41.3594H81.6272V62.8092H101.681V95.8415H76.0176V117.291H101.681H125.604H145.682V95.8415H125.604Z" fill="#EFEFEF"/>
<path d="M113.644 33.2489C122.68 33.2489 130.005 25.924 130.005 16.8881C130.005 7.85232 122.68 0.527344 113.644 0.527344C104.608 0.527344 97.2832 7.85232 97.2832 16.8881C97.2832 25.924 104.608 33.2489 113.644 33.2489Z" fill="#EFEFEF"/>
<path d="M327.712 119.678C336.073 119.678 342.85 112.901 342.85 104.54C342.85 96.1798 336.073 89.4023 327.712 89.4023C319.352 89.4023 312.574 96.1798 312.574 104.54C312.574 112.901 319.352 119.678 327.712 119.678Z" fill="#7E26F6"/>
<path d="M452.117 33.5045C461.37 33.5045 468.87 26.0043 468.87 16.7523C468.87 7.50024 461.37 0 452.117 0C442.865 0 435.365 7.50024 435.365 16.7523C435.365 26.0043 442.865 33.5045 452.117 33.5045Z" fill="#7E26F6"/>
<path d="M464.525 92.8978V37.6811H405.773V53.0572H405.147C399.134 43.2464 389.767 35.5664 379.27 35.5664C361.134 35.5664 346.428 54.4011 346.428 77.6347C346.428 100.868 361.13 119.703 379.27 119.703C389.553 119.703 398.731 113.855 404.752 104.379C404.877 104.186 405.091 104.065 405.325 104.073L405.773 104.085V109.775C405.773 113.75 408.997 116.975 412.973 116.975H484.433V92.9018H464.525V92.8978ZM441.856 92.8978H426.678C425.282 92.8978 424.152 91.7678 424.152 90.3714V58.6588H441.86V92.9018L441.856 92.8978ZM384.642 101.466C374.375 101.466 366.053 90.7952 366.053 77.6347C366.053 64.4742 374.375 53.8038 384.642 53.8038C394.909 53.8038 403.23 64.4742 403.23 77.6347C403.23 90.7952 394.909 101.466 384.642 101.466Z" fill="#7E26F6"/>
<path d="M239.513 146.735V129.123H282.739C285.726 129.123 287.223 127.521 287.223 124.32V104.307H284.342C283.486 106.123 282.154 107.935 280.338 109.751C278.522 111.567 276.068 113.061 272.973 114.235C269.878 115.409 265.927 115.995 261.124 115.995C254.933 115.995 249.517 114.582 244.872 111.753C240.231 108.928 236.627 105.005 234.065 99.985C231.502 94.9686 230.223 89.2056 230.223 82.696V35.3086H250.397V81.0978C250.397 87.0747 251.862 91.5584 254.8 94.5448C257.734 97.5353 261.923 99.0285 267.367 99.0285C273.554 99.0285 278.361 96.9743 281.775 92.866C285.189 88.7576 286.896 83.0188 286.896 75.6536V35.3086H307.071V128.808C307.071 134.252 305.469 138.599 302.268 141.856C299.068 145.108 294.794 146.739 289.459 146.739H239.509L239.513 146.735Z" fill="#EFEFEF"/>
<path d="M0 117.256V4.92578H23.8592V95.5639H70.3345V117.256H0Z" fill="#EFEFEF"/>
<path d="M153.311 117.52V92.5106L198.656 54.8332V52.1656H154.977V34.8281H221.663V59.8375L176.318 97.5149V100.183H222.999V117.52H153.311Z" fill="#EFEFEF"/>
</g>
<defs>
<clipPath id="clip0_27153_1210">
<rect width="484.431" height="147.336" fill="white"/>
</clipPath>
</defs>
</svg>
