<svg width="74" height="74" viewBox="0 0 74 74" fill="none" xmlns="http://www.w3.org/2000/svg">
<path d="M73.5545 42.7246C72.23 51.1817 68.0142 58.9179 61.6253 64.6151C55.2364 70.3123 47.0697 73.618 38.5168 73.9689C29.9638 74.3198 21.5538 71.6943 14.7197 66.5396C7.88553 61.3849 3.05013 54.0201 1.03736 45.6999C-0.975411 37.3798 -0.0410158 28.6191 3.68134 20.9107C7.40369 13.2022 13.6837 7.02292 21.4513 3.42564C29.2189 -0.171636 37.9935 -0.964313 46.28 1.18267C54.5666 3.32966 61.8523 8.28346 66.8958 15.2L60.2313 20.0598C56.3121 14.6851 50.6506 10.8356 44.2113 9.16722C37.772 7.49885 30.9535 8.11482 24.9175 10.9102C18.8815 13.7055 14.0014 18.5073 11.1089 24.4974C8.21632 30.4874 7.49022 37.2951 9.0543 43.7605C10.6184 50.2259 14.3758 55.9489 19.6865 59.9545C24.9971 63.9601 31.5324 66.0003 38.1787 65.7276C44.8249 65.455 51.1711 62.8862 56.1357 58.459C61.1004 54.0319 64.3764 48.0203 65.4056 41.4485L73.5545 42.7246Z" fill="#0D324C"/>
<path d="M24.5684 46.6797H49.1368V46.6797C49.1368 53.4641 43.6369 58.9639 36.8526 58.9639V58.9639C30.0682 58.9639 24.5684 53.4641 24.5684 46.6797V46.6797Z" fill="#0D324C"/>
<g filter="url(#filter0_d_27151_1201)">
<path d="M31.911 25.5939C31.911 25.5939 31.6453 25.5899 31.1141 25.5819C30.7438 25.5819 30.2689 25.5939 29.6894 25.6181L28.965 25.6422C27.9025 25.6825 27.0855 25.7026 26.514 25.7026C25.9506 25.7026 25.6326 25.6744 25.5602 25.6181C25.4958 25.5618 25.4314 25.4169 25.367 25.1834C25.1658 24.4751 24.6426 24.1169 23.7974 24.1089L23.4835 24.1813C22.8155 24.3423 22.409 24.5435 22.2641 24.785C22.1916 24.9057 22.1554 25.0547 22.1554 25.2317C22.1554 25.4088 22.2158 25.5738 22.3365 25.7268C22.4653 25.8797 22.6062 26.0045 22.7591 26.101C22.912 26.1896 23.1294 26.2821 23.4111 26.3787C23.7009 26.4753 23.9262 26.5437 24.0872 26.584C24.2482 26.6162 24.4856 26.6685 24.7996 26.7409L26.6348 27.1515C28.3412 27.6022 29.6049 28.0731 30.4259 28.5641C31.9391 29.707 32.6958 31.2766 32.6958 33.2728C32.6958 34.6009 32.3416 35.6916 31.6333 36.5448C30.9249 37.3899 30.0637 38.0298 29.0495 38.4645C28.0434 38.8911 26.9286 39.2251 25.7051 39.4666L25.7413 41.5674L25.7534 41.7727C25.7373 41.9176 25.6447 41.99 25.4757 41.99C24.2683 41.99 23.061 41.9659 21.8536 41.9176L21.5155 41.6037C21.5236 41.4105 21.5276 41.1489 21.5276 40.8189C21.5276 40.1508 21.4431 39.7322 21.274 39.5632C21.1131 39.3942 20.7066 39.2533 20.0546 39.1406C19.4107 39.036 18.7587 38.8026 18.0987 38.4403C17.4386 38.0701 16.9034 37.6153 16.4929 37.076C15.696 36.0377 15.2251 34.7699 15.0803 33.2728C15.0963 33.144 15.2976 33.0796 15.6839 33.0796L16.2635 33.1038H22.0347C22.1313 33.144 22.2158 33.3332 22.2882 33.6712C22.3607 34.0013 22.4412 34.2588 22.5297 34.444C22.739 34.8706 23.1414 35.0839 23.7371 35.0839C24.3327 35.0839 24.8076 34.9551 25.1618 34.6975C25.5159 34.4319 25.693 34.1019 25.693 33.7075C25.693 33.305 25.5642 33.0152 25.3067 32.8382C25.0491 32.653 24.8237 32.5564 24.6305 32.5484C24.4374 32.5323 24.2723 32.5041 24.1355 32.4639C24.0067 32.4156 23.8337 32.3552 23.6163 32.2828C23.4071 32.2103 23.2139 32.15 23.0368 32.1017L22.578 31.9809C20.4047 31.4094 19.0042 30.9708 18.3764 30.6649C16.4607 29.8036 15.5028 28.3025 15.5028 26.1614C15.5028 23.4811 16.7706 21.6539 19.306 20.68C20.0546 20.3982 20.8635 20.1648 21.7328 19.9797C21.6926 19.4323 21.6725 18.9051 21.6725 18.398C21.6725 17.8829 21.6966 17.577 21.7449 17.4804C22.1957 17.4965 22.5096 17.5046 22.6867 17.5046L25.198 17.4684C25.3751 17.4684 25.4636 17.8024 25.4636 18.4705L25.4153 20.0159C28.2969 20.2091 30.2206 21.0784 31.1865 22.6238C31.6775 23.4126 31.923 24.3946 31.923 25.5698L31.911 25.5939Z" fill="#0D324C"/>
</g>
<g filter="url(#filter1_d_27151_1201)">
<path d="M58.9344 25.5939C58.9344 25.5939 58.6688 25.5899 58.1375 25.5819C57.7673 25.5819 57.2924 25.5939 56.7128 25.6181L55.9884 25.6422C54.9259 25.6825 54.109 25.7026 53.5375 25.7026C52.974 25.7026 52.6561 25.6744 52.5836 25.6181C52.5193 25.5618 52.4549 25.4169 52.3905 25.1834C52.1892 24.4751 51.666 24.1169 50.8209 24.1089L50.507 24.1813C49.8389 24.3423 49.4324 24.5435 49.2875 24.785C49.2151 24.9057 49.1789 25.0547 49.1789 25.2317C49.1789 25.4088 49.2392 25.5738 49.36 25.7268C49.4888 25.8797 49.6296 26.0045 49.7825 26.101C49.9355 26.1896 50.1528 26.2821 50.4345 26.3787C50.7243 26.4753 50.9497 26.5437 51.1107 26.584C51.2716 26.6162 51.5091 26.6685 51.823 26.7409L53.6582 27.1515C55.3646 27.6022 56.6283 28.0731 57.4493 28.5641C58.9626 29.707 59.7192 31.2766 59.7192 33.2728C59.7192 34.6009 59.365 35.6916 58.6567 36.5448C57.9484 37.3899 57.0871 38.0298 56.0729 38.4645C55.0668 38.8911 53.952 39.2251 52.7285 39.4666L52.7647 41.5674L52.7768 41.7727C52.7607 41.9176 52.6682 41.99 52.4991 41.99C51.2918 41.99 50.0844 41.9659 48.877 41.9176L48.539 41.6037C48.547 41.4105 48.551 41.1489 48.551 40.8189C48.551 40.1508 48.4665 39.7322 48.2975 39.5632C48.1365 39.3942 47.73 39.2533 47.078 39.1406C46.4341 39.036 45.7821 38.8026 45.1221 38.4403C44.4621 38.0701 43.9268 37.6153 43.5163 37.076C42.7194 36.0377 42.2486 34.7699 42.1037 33.2728C42.1198 33.144 42.321 33.0796 42.7074 33.0796L43.2869 33.1038H49.0581C49.1547 33.144 49.2392 33.3332 49.3117 33.6712C49.3841 34.0013 49.4646 34.2588 49.5531 34.444C49.7624 34.8706 50.1649 35.0839 50.7605 35.0839C51.3562 35.0839 51.8311 34.9551 52.1852 34.6975C52.5394 34.4319 52.7165 34.1019 52.7165 33.7075C52.7165 33.305 52.5877 33.0152 52.3301 32.8382C52.0725 32.653 51.8471 32.5564 51.654 32.5484C51.4608 32.5323 51.2958 32.5041 51.1589 32.4639C51.0302 32.4156 50.8571 32.3552 50.6398 32.2828C50.4305 32.2103 50.2373 32.15 50.0602 32.1017L49.6014 31.9809C47.4282 31.4094 46.0276 30.9708 45.3998 30.6649C43.4841 29.8036 42.5263 28.3025 42.5263 26.1614C42.5263 23.4811 43.794 21.6539 46.3295 20.68C47.078 20.3982 47.887 20.1648 48.7563 19.9797C48.716 19.4323 48.6959 18.9051 48.6959 18.398C48.6959 17.8829 48.7201 17.577 48.7684 17.4804C49.2191 17.4965 49.533 17.5046 49.7101 17.5046L52.2214 17.4684C52.3985 17.4684 52.4871 17.8024 52.4871 18.4705L52.4388 20.0159C55.3203 20.2091 57.2441 21.0784 58.21 22.6238C58.701 23.4126 58.9465 24.3946 58.9465 25.5698L58.9344 25.5939Z" fill="#0D324C"/>
</g>
<defs>
<filter id="filter0_d_27151_1201" x="15.0801" y="17.4688" width="17.6152" height="26.5157" filterUnits="userSpaceOnUse" color-interpolation-filters="sRGB">
<feFlood flood-opacity="0" result="BackgroundImageFix"/>
<feColorMatrix in="SourceAlpha" type="matrix" values="0 0 0 0 0 0 0 0 0 0 0 0 0 0 0 0 0 0 127 0" result="hardAlpha"/>
<feOffset dy="1.99618"/>
<feComposite in2="hardAlpha" operator="out"/>
<feColorMatrix type="matrix" values="0 0 0 0 0.976471 0 0 0 0 0.737255 0 0 0 0 0.764706 0 0 0 0.26 0"/>
<feBlend mode="normal" in2="BackgroundImageFix" result="effect1_dropShadow_27151_1201"/>
<feBlend mode="normal" in="SourceGraphic" in2="effect1_dropShadow_27151_1201" result="shape"/>
</filter>
<filter id="filter1_d_27151_1201" x="42.1035" y="17.4688" width="17.6152" height="26.5157" filterUnits="userSpaceOnUse" color-interpolation-filters="sRGB">
<feFlood flood-opacity="0" result="BackgroundImageFix"/>
<feColorMatrix in="SourceAlpha" type="matrix" values="0 0 0 0 0 0 0 0 0 0 0 0 0 0 0 0 0 0 127 0" result="hardAlpha"/>
<feOffset dy="1.99618"/>
<feComposite in2="hardAlpha" operator="out"/>
<feColorMatrix type="matrix" values="0 0 0 0 0.976471 0 0 0 0 0.737255 0 0 0 0 0.764706 0 0 0 0.26 0"/>
<feBlend mode="normal" in2="BackgroundImageFix" result="effect1_dropShadow_27151_1201"/>
<feBlend mode="normal" in="SourceGraphic" in2="effect1_dropShadow_27151_1201" result="shape"/>
</filter>
</defs>
</svg>
