<svg width="77" height="61" viewBox="0 0 77 61" fill="none" xmlns="http://www.w3.org/2000/svg">
<path d="M0.30594 30.4499C-0.749856 24.5762 0.943321 18.6192 5.12533 13.494C9.30734 8.3689 15.7468 4.35919 23.4544 2.08097C31.162 -0.197248 39.7113 -0.617952 47.7888 0.883499C55.8663 2.38495 63.0252 5.72549 68.1655 10.3919C73.3057 15.0583 76.1431 20.7924 76.2416 26.7132C76.3401 32.634 73.6943 38.4139 68.7107 43.165C63.7271 47.9161 56.6814 51.3755 48.6561 53.0116C40.6308 54.6478 32.0699 54.3702 24.2887 52.2216L27.0478 47.1975C33.277 48.9176 40.1305 49.1398 46.5551 47.83C52.9798 46.5201 58.6202 43.7507 62.6098 39.9473C66.5994 36.1438 68.7175 31.5166 68.6386 26.7768C68.5598 22.0369 66.2883 17.4465 62.1733 13.7108C58.0582 9.97513 52.3272 7.30086 45.8608 6.09888C39.3944 4.8969 32.5502 5.23369 26.3799 7.05752C20.2096 8.88134 15.0545 12.0913 11.7066 16.1942C8.35871 20.2971 7.00324 25.066 7.84846 29.7682L0.30594 30.4499Z" fill="#0D324C"/>
<path d="M14.5566 60.9993L27.033 47.1367L38.1231 54.068L14.5566 60.9993Z" fill="#0D324C"/>
<rect x="19.4082" y="19.4062" width="38.8153" height="5.54504" rx="2.77252" fill="#0D324C"/>
<rect x="19.4082" y="30.4961" width="38.8153" height="5.54504" rx="2.77252" fill="#0D324C"/>
</svg>
