<?xml version="1.0" encoding="UTF-8"?>
<svg id="Calque_1" data-name="Calque 1" xmlns="http://www.w3.org/2000/svg" viewBox="0 0 1920 1080">
  <defs>
    <style>
      .cls-1 {
        fill: #efefef;
      }

      .cls-2 {
        fill: #ef3741;
      }
    </style>
  </defs>
  <path class="cls-1" d="M104.13,802.51c-1.84-1.83-2.76-4.36-2.76-7.58v-461.6c0-3.21.92-5.74,2.76-7.58,1.83-1.83,4.36-2.76,7.58-2.76h108.85c3.21,0,5.74.93,7.58,2.76,1.83,1.84,2.76,4.37,2.76,7.58v335.38c0,14.16,11.48,25.63,25.63,25.63h134.38v110.92s-279.2,0-279.2,0c-3.22,0-5.75-.92-7.58-2.76Z"/>
  <path class="cls-1" d="M372.27,802.51c-1.84-1.83-2.76-4.36-2.76-7.58v-297.65c0-3.93,2.45-7.45,6.14-8.8l113.04-41.47h0c3.21,0,5.74.93,7.58,2.76,1.83,1.84,2.76,4.37,2.76,7.58v337.59c0,3.22-.93,5.75-2.76,7.58-1.84,1.84-4.37,2.76-7.58,2.76h-108.85c-3.22,0-5.75-.92-7.58-2.76ZM388.46,404.64c-12.18-12.16-18.26-27.67-18.26-46.5s6.08-34.9,18.26-46.85c12.16-11.94,27.67-17.91,46.5-17.91s34.33,5.97,46.5,17.91c12.16,11.95,18.26,27.56,18.26,46.85s-6.09,33.76-18.26,46.16c-12.17,12.4-27.68,18.6-46.5,18.6s-34.34-6.08-46.5-18.26Z"/>
  <path class="cls-2" d="M1687.05,802.51c-1.84-1.83-2.76-4.36-2.76-7.58v-297.65c0-3.93,2.45-7.45,6.14-8.8l113.04-41.47h0c3.21,0,5.74.93,7.58,2.76,1.83,1.84,2.76,4.37,2.76,7.58v337.59c0,3.22-.93,5.75-2.76,7.58-1.84,1.84-4.37,2.76-7.58,2.76h-108.85c-3.22,0-5.75-.92-7.58-2.76ZM1703.24,404.64c-12.18-12.16-18.26-27.67-18.26-46.5s6.08-34.9,18.26-46.85c12.16-11.94,27.67-17.91,46.5-17.91s34.33,5.97,46.5,17.91c12.16,11.95,18.26,27.56,18.26,46.85s-6.09,33.76-18.26,46.16c-12.17,12.4-27.68,18.6-46.5,18.6s-34.34-6.08-46.5-18.26Z"/>
  <path class="cls-1" d="M536.93,802.51c-1.84-1.83-2.76-4.36-2.76-7.58v-99.21c0-5.05,1.83-9.18,5.51-12.4l127.46-115.06c.91-.92,1.26-1.83,1.03-2.76-.24-.92-1.03-1.38-2.41-1.38h-116.43c-3.22,0-5.75-.92-7.58-2.76-1.84-1.83-2.76-4.36-2.76-7.58v-96.45c0-3.21.92-5.74,2.76-7.58,1.83-1.83,4.36-2.76,7.58-2.76h265.94c3.21,0,26.92.93,28.76,2.76,1.83,1.84,2.76,4.37,2.76,7.58v99.21c0,5.06-1.84,9.19-5.51,12.4l-154.84,121.6c-.93.93-1.27,1.84-1.03,2.76.23.93,1.03,1.38,2.41,1.38h132.97c3.21,0,5.74.93,7.58,2.76,1.83,1.84,2.76,4.37,2.76,7.58v89.91c0,3.22-.93,5.75-2.76,7.58-1.84,1.84-4.37,2.76-7.58,2.76h-276.27c-3.22,0-5.75-.92-7.58-2.76Z"/>
  <path class="cls-1" d="M825.11,939.61c-.93-1.84-1.38-4.37-1.38-7.58v-85.43c0-6.89,2.52-10.33,7.58-10.33,30.31,0,51.78-1.84,64.42-5.51,12.63-3.68,23.4-13.5,21.7-23.43h0c-.46-2.75-1.11-5.47-1.95-8.13l-107.59-340.48c-.46-.92-.69-2.29-.69-4.13,0-5.05,3.21-7.58,9.65-7.58h115.74c6.43,0,10.33,2.99,11.71,8.96l37.2,183.95c.45,1.84,1.14,2.76,2.07,2.76s1.6-.92,2.07-2.76l37.2-183.95c1.38-5.96,5.27-8.96,11.71-8.96h112.99c7.8,0,10.56,3.91,8.27,11.71l-112.3,347.92c-11.95,35.36-24.58,62.23-37.89,80.61-13.33,18.36-33.19,32.14-59.59,41.34-26.42,9.18-63.96,13.78-112.64,13.78h-4.82c-1.38,0-2.53-.93-3.44-2.76Z"/>
  <path class="cls-2" d="M1137.69,792.52c-12.17-12.16-18.26-27.67-18.26-46.5s6.08-34.9,18.26-46.85c12.17-11.94,27.67-17.91,46.5-17.91s34.33,5.98,46.5,17.91c12.16,11.95,18.26,27.56,18.26,46.85s-6.2,33.76-18.6,46.16c-12.4,12.4-27.8,18.6-46.16,18.6s-34.34-6.08-46.5-18.26Z"/>
  <path class="cls-2" d="M1609.42,805.26h-108.85c-3.22,0-5.75-.92-7.58-2.76-1.84-1.83-2.76-4.36-2.76-7.58v-24.11c0-1.83-.34-2.86-1.03-3.1-.69-.23-1.5.34-2.41,1.72-7.82,14.24-18.6,24.69-32.38,31.35-13.78,6.65-31.93,9.99-54.43,9.99-37.67,0-67.29-8.61-88.88-25.84-21.59-17.22-32.38-42.37-32.38-75.44,0-34.9,12.28-61.77,36.86-80.61,24.57-18.83,60.28-28.25,107.13-28.25h64.07c2.29,0,3.44-1.14,3.44-3.45v-12.4c0-9.65-3.56-17.45-10.68-23.42-7.13-5.96-16.65-8.96-28.59-8.96-8.27,0-15.62,1.38-22.05,4.13-6.44,2.76-11.02,6.44-13.78,11.02-1.84,3.22-3.56,5.4-5.17,6.55-1.61,1.15-3.79,1.5-6.55,1.03l-110.92-13.78c-6.44-.92-9.65-3.67-9.65-8.27,1.83-20.67,10.1-39.5,24.8-56.49,14.69-16.99,34.33-30.42,58.91-40.3,24.57-9.87,52.02-14.81,82.33-14.81s59.94,5.29,86.12,15.85c26.18,10.57,46.85,25.04,62.01,43.4,15.16,18.38,22.74,38.36,22.74,59.94v244.58M1476.11,709.5c9.41-7.8,14.12-18.36,14.12-31.69v-8.96c0-2.29-1.15-3.44-3.44-3.44h-34.45c-28.94,0-43.4,9.42-43.4,28.25,0,8.27,2.64,14.93,7.92,19.98,5.27,5.06,12.97,7.58,23.08,7.58,14.69,0,26.75-3.9,36.17-11.71Z"/>
  <rect class="cls-2" x="1539.96" y="694.69" width="209.44" height="110.58"/>
</svg>