<?xml version="1.0" encoding="UTF-8"?>
<svg id="Calque_2" data-name="Calque 2" xmlns="http://www.w3.org/2000/svg" viewBox="0 0 1920 1080">
  <defs>
    <style>
      .cls-1 {
        fill: #fff;
      }

      .cls-2 {
        fill: #f60;
      }
    </style>
  </defs>
  <g>
    <rect class="cls-2" x="70.26" y="251.78" width="648.35" height="648.35"/>
    <g>
      <path class="cls-1" d="M157.87,753.83h-5.53c-22.85,0-41.38,18.53-41.38,41.38v11.79c0,22.85,18.53,41.38,41.38,41.38h5.53c22.85,0,41.38-18.53,41.38-41.38v-11.79c0-22.85-18.53-41.38-41.38-41.38ZM174.16,808.92c0,10.65-8.63,19.28-19.28,19.28h0c-10.65,0-19.28-8.63-19.28-19.28v-16.16c0-10.65,8.63-19.28,19.28-19.28h0c10.65,0,19.28,8.63,19.28,19.28v16.16Z"/>
      <path class="cls-1" d="M239.62,763.88v-8.31h-24.3v90.08h24.3v-56.7c0-13.5,26.02-12.03,26.02-12.03v-23.09c-12.66-1.05-21.77,5.89-26.02,10.05Z"/>
      <path class="cls-1" d="M326.7,754.77c-25.3-4.34-43.83,4.82-50.74,16.78l16.62,10.09s4.12-10.6,22.02-11.14c6.05-.02,9.61,2.55,11.52,4.66,1.22,1.36,1.86,3.15,1.86,4.98v5.72s-58.56,2.53-56.57,36.69c1.99,34.16,43.74,26.39,56.57,15.91l1.63,7.95,21.69-.75v-66.84s.72-19.7-24.58-24.04ZM327.44,821.01s-10.91,11.1-25.39,8.65c-9.03-2.63-19.37-23.66,25.39-29.98v21.33Z"/>
      <path class="cls-1" d="M449.72,778.26c-1.46-20.33-17.76-26.37-32.23-24.59-14.47,1.78-26.08,12.18-26.08,12.18l-2.61-10.27-19.58,2.26v87.8h23.82v-64.15c2.1-3.54,15.11-10.56,23.54-9.83,8.42.73,9.16,11.17,9.16,11.17l.37,62.81h23.62s1.46-47.06,0-67.39Z"/>
      <path class="cls-1" d="M549.19,847.38v-91.77h-19.95l-2.16,9.13s-8.17-12.19-28.12-11.07c-36.77,5.51-42.06,57.22-23.07,80.05,18.99,22.83,47.83,9.61,49.99-.48-.48,15.86,2.16,28.36-17.3,29.56-16.58,0-16.83-9.13-16.83-9.13l-23.79,4.33s5.29,22.21,38.7,22.11c44.71,2.16,42.54-32.73,42.54-32.73ZM507.89,826.03c-10.52,0-19.05-12.31-19.05-27.5s8.53-27.5,19.05-27.5,19.05,12.31,19.05,27.5-8.53,27.5-19.05,27.5Z"/>
      <path class="cls-1" d="M634.06,763.83c-12.99-15.1-68.53-20.95-70.62,32.71,0,0-6.68,43.01,32.36,49.9,39.04,6.89,49.48-18.16,49.48-18.16l-17.33-10.23s-7.72,12.11-20.46,11.27c-14.41-.63-19.55-8.87-20.74-24.9h59.27s4.89-22.29-11.97-40.59ZM622.76,788.68h-35.61s.12-18.32,18.9-18.44c18.78-.12,16.71,18.44,16.71,18.44Z"/>
      <polygon class="cls-1" points="655.85 721.7 631.93 721.7 631.93 726.06 641.27 726.06 641.27 751.85 646.69 751.85 646.69 726.06 655.85 726.06 655.85 721.7"/>
      <polygon class="cls-1" points="688.86 721.7 686.62 721.7 677.77 743.75 668.93 721.7 667.18 721.7 661.45 721.7 661.45 751.85 667.18 751.85 667.18 728.73 676.15 751.85 679.76 751.85 688.86 728.55 688.86 751.85 694.59 751.85 694.59 721.7 688.86 721.7"/>
    </g>
  </g>
  <g>
    <g>
      <path class="cls-1" d="M848.39,302.62c4.07-11.02,9.93-20.63,17.57-28.83s17.02-14.64,28.14-19.3c11.12-4.66,23.64-7,37.56-7s26.65,2.33,37.69,7c11.04,4.67,20.37,11.1,28.01,19.3,7.64,8.2,13.5,17.82,17.57,28.83,4.07,11.02,6.11,22.96,6.11,35.83s-2.04,24.25-6.11,35.11c-4.07,10.86-9.93,20.31-17.57,28.35-7.64,8.05-16.98,14.36-28.01,18.94-11.04,4.58-23.6,6.88-37.69,6.88s-26.44-2.29-37.56-6.88c-11.12-4.58-20.5-10.9-28.14-18.94-7.64-8.04-13.5-17.49-17.57-28.35-4.07-10.86-6.11-22.56-6.11-35.11s2.04-24.81,6.11-35.83ZM884.94,359.56c1.78,6.84,4.62,12.99,8.53,18.46,3.9,5.47,9,9.85,15.28,13.15,6.28,3.3,13.92,4.95,22.92,4.95s16.64-1.65,22.92-4.95c6.28-3.29,11.37-7.68,15.28-13.15,3.9-5.47,6.75-11.62,8.53-18.46,1.78-6.83,2.67-13.87,2.67-21.11s-.89-14.88-2.67-21.96c-1.78-7.08-4.63-13.39-8.53-18.94-3.91-5.55-9-9.97-15.28-13.27-6.28-3.29-13.92-4.95-22.92-4.95s-16.64,1.65-22.92,4.95c-6.28,3.3-11.38,7.72-15.28,13.27-3.91,5.55-6.75,11.86-8.53,18.94-1.78,7.08-2.67,14.4-2.67,21.96s.89,14.28,2.67,21.11Z"/>
      <path class="cls-1" d="M1067.91,299.12v23.16h.51c1.7-3.86,3.99-7.44,6.88-10.74,2.88-3.29,6.2-6.11,9.93-8.44,3.73-2.33,7.72-4.14,11.97-5.43,4.24-1.29,8.66-1.93,13.24-1.93,2.38,0,5,.4,7.89,1.21v31.85c-1.7-.32-3.73-.6-6.11-.84-2.38-.24-4.67-.36-6.88-.36-6.62,0-12.22,1.05-16.81,3.14-4.58,2.09-8.28,4.95-11.08,8.57-2.8,3.62-4.8,7.84-5.98,12.67-1.19,4.83-1.78,10.05-1.78,15.68v56.22h-36.16v-124.74h34.38Z"/>
      <path class="cls-1" d="M1120.11,337.48c.51-8.04,2.63-14.72,6.37-20.03,3.73-5.31,8.49-9.57,14.26-12.79,5.77-3.22,12.26-5.51,19.48-6.88,7.21-1.36,14.47-2.05,21.77-2.05,6.62,0,13.33.44,20.12,1.33,6.79.89,12.99,2.62,18.59,5.19,5.6,2.57,10.19,6.15,13.75,10.74s5.35,10.66,5.35,18.22v64.9c0,5.63.34,11.02,1.02,16.17.68,5.15,1.87,9.01,3.56,11.58h-36.67c-.68-1.93-1.23-3.9-1.66-5.91-.43-2.01-.72-4.06-.89-6.15-5.77,5.63-12.57,9.57-20.37,11.82-7.81,2.25-15.79,3.38-23.94,3.38-6.28,0-12.14-.72-17.57-2.17-5.44-1.45-10.19-3.7-14.26-6.76-4.08-3.05-7.26-6.91-9.55-11.58-2.29-4.66-3.44-10.21-3.44-16.65,0-7.08,1.31-12.91,3.95-17.49,2.63-4.58,6.02-8.24,10.19-10.98,4.16-2.73,8.91-4.78,14.26-6.15,5.35-1.36,10.73-2.45,16.17-3.26,5.43-.8,10.78-1.45,16.04-1.93,5.26-.48,9.93-1.21,14.01-2.17,4.07-.96,7.3-2.37,9.68-4.22,2.38-1.85,3.48-4.54,3.31-8.08,0-3.7-.64-6.64-1.91-8.81s-2.97-3.86-5.09-5.07c-2.12-1.21-4.58-2.01-7.38-2.41-2.8-.4-5.82-.6-9.04-.6-7.13,0-12.73,1.45-16.81,4.34s-6.45,7.72-7.13,14.48h-36.16ZM1203.64,362.82c-1.53,1.29-3.44,2.29-5.73,3.02-2.29.72-4.75,1.33-7.38,1.81-2.63.48-5.39.89-8.28,1.21-2.89.32-5.77.72-8.66,1.21-2.72.48-5.39,1.13-8.02,1.93-2.63.81-4.93,1.89-6.88,3.26-1.95,1.37-3.53,3.1-4.71,5.19-1.19,2.09-1.78,4.75-1.78,7.96s.59,5.63,1.78,7.72c1.19,2.09,2.8,3.74,4.84,4.95,2.04,1.21,4.41,2.05,7.13,2.53,2.71.48,5.52.72,8.4.72,7.13,0,12.64-1.12,16.55-3.38,3.9-2.25,6.79-4.95,8.66-8.08,1.87-3.14,3.01-6.31,3.44-9.53.42-3.22.64-5.79.64-7.72v-12.79Z"/>
      <path class="cls-1" d="M1291.23,299.12v17.37h.76c4.58-7.24,10.53-12.5,17.83-15.8,7.3-3.29,14.77-4.95,22.41-4.95,9.68,0,17.61,1.25,23.81,3.74,6.2,2.5,11.08,5.95,14.64,10.38,3.56,4.43,6.07,9.81,7.51,16.17,1.44,6.36,2.16,13.39,2.16,21.11v76.73h-36.16v-70.45c0-10.29-1.7-17.98-5.09-23.04-3.4-5.07-9.42-7.6-18.08-7.6-9.85,0-16.98,2.77-21.39,8.32-4.42,5.55-6.62,14.68-6.62,27.39v65.39h-36.16v-124.74h34.38Z"/>
      <path class="cls-1" d="M1521.31,433.03c-1.45,6.43-4.54,12.43-9.29,17.98-4.76,5.55-11.63,10.25-20.63,14.11-9,3.86-21.05,5.79-36.16,5.79-6.45,0-13.03-.77-19.74-2.29-6.71-1.53-12.82-3.9-18.33-7.12-5.52-3.22-10.1-7.36-13.75-12.43-3.65-5.07-5.73-11.14-6.24-18.22h35.91c1.7,6.43,5.01,10.9,9.93,13.39,4.92,2.49,10.61,3.74,17.06,3.74,10.19,0,17.61-2.9,22.28-8.69,4.67-5.79,6.92-13.11,6.75-21.96v-16.41h-.51c-3.91,6.6-9.46,11.46-16.68,14.6-7.22,3.14-14.81,4.71-22.79,4.71-9.85,0-18.34-1.65-25.46-4.95-7.13-3.29-12.99-7.8-17.57-13.51-4.58-5.71-7.94-12.38-10.06-20.03-2.12-7.64-3.18-15.72-3.18-24.25,0-8.04,1.23-15.8,3.69-23.28,2.46-7.48,6.07-14.07,10.82-19.78,4.75-5.71,10.65-10.25,17.7-13.63,7.04-3.38,15.15-5.07,24.32-5.07,8.66,0,16.25,1.53,22.79,4.58,6.53,3.06,12.01,8.2,16.42,15.44h.51v-16.65h34.38v116.78c0,4.99-.72,10.7-2.16,17.13ZM1471.78,391.53c3.9-1.93,7.13-4.5,9.68-7.72,2.54-3.22,4.46-6.88,5.73-10.98,1.27-4.1,1.91-8.4,1.91-12.91,0-5.15-.51-10.01-1.53-14.6-1.02-4.58-2.72-8.64-5.09-12.18-2.38-3.54-5.52-6.35-9.42-8.44-3.91-2.09-8.83-3.14-14.77-3.14-5.09,0-9.47.97-13.12,2.9-3.65,1.93-6.71,4.55-9.17,7.84-2.46,3.3-4.24,7.08-5.35,11.34-1.11,4.26-1.65,8.73-1.65,13.39s.46,8.97,1.4,13.39c.93,4.43,2.55,8.41,4.84,11.94,2.29,3.54,5.3,6.44,9.04,8.69,3.73,2.25,8.4,3.38,14.01,3.38,5.09,0,9.59-.97,13.5-2.9Z"/>
      <path class="cls-1" d="M1580.26,393.94c5.43,4.99,13.24,7.48,23.43,7.48,7.3,0,13.58-1.73,18.84-5.19,5.26-3.46,8.49-7.12,9.68-10.98h31.83c-5.09,14.96-12.9,25.66-23.43,32.09-10.53,6.44-23.26,9.65-38.2,9.65-10.36,0-19.7-1.57-28.01-4.71-8.32-3.14-15.37-7.6-21.14-13.39-5.77-5.79-10.23-12.7-13.37-20.75-3.14-8.04-4.71-16.89-4.71-26.54s1.61-18.01,4.84-26.06c3.22-8.04,7.81-15,13.75-20.87,5.94-5.87,13.03-10.5,21.26-13.87,8.23-3.38,17.36-5.07,27.38-5.07,11.21,0,20.96,2.05,29.29,6.15,8.32,4.1,15.15,9.61,20.5,16.53,5.35,6.92,9.21,14.8,11.59,23.65,2.38,8.85,3.22,18.1,2.55,27.75h-94.99c.51,11.1,3.48,19.14,8.91,24.13ZM1621.13,328.32c-4.33-4.5-10.91-6.76-19.74-6.76-5.77,0-10.57.93-14.39,2.77-3.82,1.85-6.88,4.14-9.17,6.88-2.29,2.74-3.91,5.63-4.84,8.69-.94,3.06-1.49,5.79-1.66,8.2h58.83c-1.7-8.69-4.71-15.28-9.04-19.79Z"/>
    </g>
    <g>
      <path class="cls-1" d="M928.61,489.95c11.71,0,22.62,1.77,32.72,5.31,10.1,3.54,18.85,8.85,26.23,15.92,7.38,7.08,13.15,15.92,17.32,26.54,4.16,10.62,6.24,23.08,6.24,37.4,0,12.55-1.7,24.13-5.09,34.74-3.4,10.62-8.53,19.79-15.41,27.51-6.88,7.72-15.45,13.79-25.72,18.22-10.27,4.43-22.37,6.63-36.29,6.63h-78.43v-172.27h78.43ZM925.81,630.37c5.77,0,11.37-.88,16.81-2.65,5.43-1.77,10.27-4.71,14.52-8.81,4.24-4.1,7.64-9.45,10.19-16.04,2.55-6.59,3.82-14.64,3.82-24.13,0-8.69-.89-16.53-2.67-23.52s-4.71-12.99-8.79-17.98c-4.07-4.98-9.47-8.81-16.17-11.46-6.71-2.65-14.99-3.98-24.83-3.98h-28.52v108.58h35.65Z"/>
      <path class="cls-1" d="M1025.12,518.18v-28.23h36.16v28.23h-36.16ZM1061.28,537.48v124.74h-36.16v-124.74h36.16Z"/>
      <path class="cls-1" d="M1203.25,671.39c-1.45,6.43-4.54,12.43-9.29,17.98-4.76,5.55-11.63,10.25-20.63,14.11-9,3.86-21.05,5.79-36.16,5.79-6.45,0-13.03-.77-19.74-2.29-6.71-1.53-12.82-3.9-18.33-7.12-5.52-3.22-10.1-7.36-13.75-12.43-3.65-5.07-5.73-11.14-6.24-18.22h35.91c1.7,6.43,5.01,10.9,9.93,13.39,4.92,2.49,10.61,3.74,17.06,3.74,10.19,0,17.61-2.9,22.28-8.69,4.67-5.79,6.92-13.11,6.75-21.96v-16.41h-.51c-3.91,6.6-9.46,11.46-16.68,14.6-7.22,3.14-14.81,4.71-22.79,4.71-9.85,0-18.34-1.65-25.46-4.95-7.13-3.29-12.99-7.8-17.57-13.51-4.58-5.71-7.94-12.38-10.06-20.03-2.12-7.64-3.18-15.72-3.18-24.25,0-8.04,1.23-15.8,3.69-23.28,2.46-7.48,6.07-14.07,10.82-19.78,4.75-5.71,10.65-10.25,17.7-13.63,7.04-3.38,15.15-5.07,24.32-5.07,8.66,0,16.25,1.53,22.79,4.58,6.53,3.06,12.01,8.2,16.42,15.44h.51v-16.65h34.38v116.78c0,4.99-.72,10.7-2.16,17.13ZM1153.72,629.89c3.9-1.93,7.13-4.5,9.68-7.72,2.54-3.22,4.46-6.88,5.73-10.98s1.91-8.4,1.91-12.91c0-5.15-.51-10.01-1.53-14.6-1.02-4.58-2.72-8.65-5.09-12.19-2.38-3.54-5.52-6.35-9.42-8.44-3.91-2.09-8.83-3.14-14.77-3.14-5.09,0-9.47.97-13.12,2.9-3.65,1.93-6.71,4.55-9.17,7.84-2.46,3.3-4.24,7.08-5.35,11.34-1.11,4.26-1.65,8.73-1.65,13.39s.46,8.97,1.4,13.39c.93,4.43,2.55,8.41,4.84,11.94,2.29,3.54,5.3,6.44,9.04,8.69,3.73,2.25,8.4,3.38,14.01,3.38,5.09,0,9.59-.97,13.5-2.9Z"/>
      <path class="cls-1" d="M1224.51,518.18v-28.23h36.16v28.23h-36.16ZM1260.68,537.48v124.74h-36.16v-124.74h36.16Z"/>
      <path class="cls-1" d="M1350.57,537.48v22.92h-26.48v61.77c0,5.79,1.02,9.65,3.06,11.58,2.04,1.93,6.11,2.9,12.22,2.9,2.04,0,3.99-.08,5.86-.24,1.87-.16,3.65-.4,5.35-.72v26.54c-3.05.48-6.45.8-10.19.97-3.74.16-7.38.24-10.95.24-5.6,0-10.91-.36-15.92-1.09-5.01-.72-9.42-2.13-13.24-4.22-3.82-2.09-6.84-5.07-9.04-8.93-2.21-3.86-3.31-8.93-3.31-15.2v-73.59h-21.9v-22.92h21.9v-37.4h36.16v37.4h26.48Z"/>
      <path class="cls-1" d="M1355.4,575.84c.51-8.04,2.63-14.72,6.37-20.03,3.73-5.31,8.49-9.57,14.26-12.79,5.77-3.22,12.26-5.51,19.48-6.88,7.21-1.36,14.47-2.05,21.77-2.05,6.62,0,13.33.44,20.12,1.33,6.79.89,12.99,2.62,18.59,5.19,5.6,2.57,10.19,6.15,13.75,10.74s5.35,10.66,5.35,18.22v64.9c0,5.63.34,11.02,1.02,16.17.68,5.15,1.87,9.01,3.56,11.58h-36.67c-.68-1.93-1.23-3.9-1.66-5.91-.43-2.01-.72-4.06-.89-6.15-5.77,5.63-12.57,9.57-20.37,11.82-7.81,2.25-15.79,3.38-23.94,3.38-6.28,0-12.14-.72-17.57-2.17-5.44-1.45-10.19-3.7-14.26-6.76-4.08-3.05-7.26-6.92-9.55-11.58-2.29-4.66-3.44-10.21-3.44-16.65,0-7.08,1.31-12.91,3.95-17.49,2.63-4.58,6.02-8.24,10.19-10.98,4.16-2.73,8.91-4.78,14.26-6.15,5.35-1.37,10.73-2.45,16.17-3.26,5.43-.8,10.78-1.45,16.04-1.93,5.26-.48,9.93-1.21,14.01-2.17s7.3-2.37,9.68-4.22c2.38-1.85,3.48-4.54,3.31-8.08,0-3.7-.64-6.64-1.91-8.81s-2.97-3.86-5.09-5.07c-2.12-1.21-4.58-2.01-7.38-2.41-2.8-.4-5.82-.6-9.04-.6-7.13,0-12.73,1.45-16.81,4.34s-6.45,7.72-7.13,14.48h-36.16ZM1438.93,601.18c-1.53,1.29-3.44,2.29-5.73,3.02-2.29.72-4.75,1.33-7.38,1.81-2.63.48-5.39.89-8.28,1.21-2.89.32-5.77.72-8.66,1.21-2.72.48-5.39,1.13-8.02,1.93-2.63.81-4.93,1.89-6.88,3.26-1.95,1.37-3.53,3.1-4.71,5.19-1.19,2.09-1.78,4.75-1.78,7.96s.59,5.63,1.78,7.72c1.19,2.09,2.8,3.74,4.84,4.95s4.41,2.05,7.13,2.53c2.71.48,5.52.72,8.4.72,7.13,0,12.64-1.12,16.55-3.38,3.9-2.25,6.79-4.95,8.66-8.08,1.87-3.14,3.01-6.31,3.44-9.53.42-3.22.64-5.79.64-7.72v-12.79Z"/>
      <path class="cls-1" d="M1529.33,489.95v172.27h-36.16v-172.27h36.16Z"/>
    </g>
    <g>
      <path class="cls-1" d="M891.43,901.29l-58.83-172.27h41l40.49,121.12h.51l41-121.12h41.25l-60.35,172.27h-45.07Z"/>
      <path class="cls-1" d="M1022.32,871.37c5.43,4.99,13.24,7.48,23.43,7.48,7.3,0,13.58-1.73,18.84-5.19,5.26-3.46,8.49-7.12,9.68-10.98h31.83c-5.09,14.96-12.9,25.66-23.43,32.09-10.53,6.44-23.26,9.65-38.2,9.65-10.36,0-19.7-1.57-28.01-4.71-8.32-3.14-15.37-7.6-21.14-13.39-5.77-5.79-10.23-12.7-13.37-20.75-3.14-8.04-4.71-16.89-4.71-26.54s1.61-18.01,4.84-26.06c3.22-8.04,7.81-15,13.75-20.87,5.94-5.87,13.03-10.5,21.26-13.87,8.23-3.38,17.36-5.07,27.38-5.07,11.21,0,20.97,2.05,29.29,6.15,8.32,4.1,15.15,9.61,20.5,16.53,5.35,6.92,9.21,14.8,11.59,23.65,2.38,8.85,3.22,18.1,2.55,27.75h-94.99c.51,11.1,3.48,19.14,8.91,24.13ZM1063.19,805.74c-4.33-4.5-10.91-6.76-19.74-6.76-5.77,0-10.57.93-14.39,2.77-3.82,1.85-6.88,4.14-9.17,6.88-2.29,2.74-3.91,5.63-4.84,8.69-.94,3.06-1.49,5.79-1.66,8.2h58.83c-1.7-8.69-4.71-15.28-9.04-19.79Z"/>
      <path class="cls-1" d="M1153.21,776.55v17.37h.76c4.58-7.24,10.52-12.5,17.83-15.8,7.3-3.29,14.77-4.95,22.41-4.95,9.68,0,17.61,1.25,23.81,3.74,6.2,2.5,11.08,5.95,14.64,10.38,3.57,4.43,6.07,9.81,7.51,16.17,1.44,6.36,2.17,13.39,2.17,21.11v76.73h-36.16v-70.45c0-10.29-1.7-17.98-5.09-23.04-3.4-5.07-9.42-7.6-18.08-7.6-9.85,0-16.98,2.77-21.39,8.32-4.42,5.55-6.62,14.68-6.62,27.39v65.39h-36.16v-124.74h34.38Z"/>
      <path class="cls-1" d="M1331.21,776.55v22.92h-26.48v61.77c0,5.79,1.02,9.65,3.06,11.58,2.04,1.93,6.11,2.9,12.22,2.9,2.04,0,3.99-.08,5.86-.24,1.87-.16,3.65-.4,5.35-.72v26.54c-3.06.48-6.45.8-10.19.96-3.74.16-7.38.24-10.95.24-5.6,0-10.91-.36-15.92-1.09-5.01-.72-9.42-2.13-13.24-4.22-3.82-2.09-6.84-5.07-9.04-8.93-2.21-3.86-3.31-8.93-3.31-15.2v-73.59h-21.9v-22.92h21.9v-37.4h36.16v37.4h26.48Z"/>
      <path class="cls-1" d="M1426.7,901.29v-17.37h-.76c-4.58,7.24-10.53,12.47-17.83,15.68-7.3,3.22-14.77,4.83-22.41,4.83-9.68,0-17.62-1.21-23.81-3.62-6.2-2.41-11.08-5.83-14.64-10.25-3.56-4.42-6.07-9.81-7.51-16.17-1.44-6.35-2.17-13.39-2.17-21.11v-76.73h36.16v70.45c0,10.3,1.7,17.98,5.09,23.04,3.39,5.07,9.42,7.6,18.08,7.6,9.84,0,16.97-2.77,21.39-8.32,4.41-5.55,6.62-14.68,6.62-27.39v-65.39h36.16v124.74h-34.38Z"/>
      <path class="cls-1" d="M1512.01,776.55v23.16h.51c1.7-3.86,3.99-7.44,6.88-10.74,2.88-3.29,6.2-6.11,9.93-8.44,3.73-2.33,7.72-4.14,11.97-5.43,4.24-1.29,8.66-1.93,13.24-1.93,2.38,0,5,.4,7.89,1.21v31.85c-1.7-.32-3.74-.6-6.11-.84-2.38-.24-4.67-.36-6.88-.36-6.62,0-12.22,1.05-16.81,3.14-4.58,2.09-8.28,4.95-11.08,8.57-2.8,3.62-4.8,7.84-5.98,12.67-1.19,4.83-1.78,10.05-1.78,15.68v56.22h-36.16v-124.74h34.38Z"/>
      <path class="cls-1" d="M1599.86,871.37c5.43,4.99,13.24,7.48,23.43,7.48,7.3,0,13.58-1.73,18.84-5.19,5.26-3.46,8.49-7.12,9.68-10.98h31.83c-5.09,14.96-12.9,25.66-23.43,32.09-10.53,6.44-23.26,9.65-38.2,9.65-10.36,0-19.7-1.57-28.01-4.71-8.32-3.14-15.37-7.6-21.14-13.39-5.77-5.79-10.23-12.7-13.37-20.75-3.14-8.04-4.71-16.89-4.71-26.54s1.61-18.01,4.84-26.06c3.22-8.04,7.81-15,13.75-20.87,5.94-5.87,13.03-10.5,21.26-13.87,8.23-3.38,17.36-5.07,27.38-5.07,11.21,0,20.97,2.05,29.29,6.15,8.32,4.1,15.15,9.61,20.5,16.53,5.35,6.92,9.21,14.8,11.59,23.65,2.38,8.85,3.22,18.1,2.55,27.75h-94.99c.51,11.1,3.48,19.14,8.91,24.13ZM1640.74,805.74c-4.33-4.5-10.91-6.76-19.74-6.76-5.77,0-10.57.93-14.39,2.77-3.82,1.85-6.88,4.14-9.17,6.88-2.29,2.74-3.91,5.63-4.84,8.69-.94,3.06-1.49,5.79-1.66,8.2h58.83c-1.7-8.69-4.71-15.28-9.04-19.79Z"/>
      <path class="cls-1" d="M1726.81,870.28c1.61,2.65,3.69,4.83,6.24,6.51,2.55,1.69,5.47,2.94,8.79,3.74,3.31.81,6.75,1.21,10.31,1.21,2.55,0,5.22-.28,8.02-.84,2.8-.56,5.35-1.45,7.64-2.65,2.29-1.21,4.2-2.81,5.73-4.83,1.53-2.01,2.29-4.54,2.29-7.6,0-5.15-3.61-9.01-10.82-11.58-7.22-2.57-17.28-5.15-30.18-7.72-5.26-1.12-10.4-2.45-15.41-3.98-5.01-1.53-9.47-3.54-13.37-6.03-3.91-2.49-7.05-5.63-9.42-9.41-2.38-3.78-3.57-8.4-3.57-13.87,0-8.04,1.66-14.63,4.97-19.79,3.31-5.15,7.68-9.21,13.12-12.18,5.43-2.97,11.54-5.07,18.33-6.27,6.79-1.21,13.75-1.81,20.88-1.81s14.05.64,20.75,1.93c6.71,1.29,12.69,3.46,17.95,6.51,5.26,3.06,9.63,7.12,13.12,12.18,3.48,5.07,5.56,11.46,6.24,19.18h-34.38c-.51-6.59-3.14-11.06-7.89-13.39-4.75-2.33-10.36-3.5-16.81-3.5-2.04,0-4.25.12-6.62.36-2.38.24-4.54.76-6.49,1.57-1.95.81-3.61,1.97-4.97,3.5-1.36,1.53-2.04,3.58-2.04,6.15,0,3.06,1.19,5.55,3.57,7.48,2.38,1.93,5.47,3.5,9.29,4.7,3.82,1.21,8.19,2.29,13.11,3.26,4.92.96,9.93,2.01,15.03,3.14,5.26,1.13,10.4,2.5,15.41,4.1,5.01,1.61,9.46,3.74,13.37,6.39,3.9,2.65,7.04,5.95,9.42,9.89,2.38,3.94,3.57,8.81,3.57,14.6,0,8.2-1.74,15.08-5.22,20.63-3.48,5.55-8.02,10.01-13.62,13.39-5.6,3.38-12.01,5.75-19.23,7.12-7.22,1.36-14.56,2.05-22.03,2.05s-15.11-.72-22.41-2.17c-7.3-1.45-13.79-3.86-19.48-7.24-5.69-3.38-10.36-7.84-14.01-13.39-3.65-5.55-5.65-12.5-5.98-20.87h34.38c0,3.7.8,6.88,2.42,9.53Z"/>
    </g>
  </g>
</svg>